<mxfile host="65bd71144e">
    <diagram id="9e12LAfPTL_YXHEhLmx4" name="Page-1">
        <mxGraphModel dx="833" dy="750" grid="1" gridSize="10" guides="1" tooltips="1" connect="1" arrows="1" fold="1" page="1" pageScale="1" pageWidth="850" pageHeight="1100" background="#FFFFFF" math="0" shadow="0">
            <root>
                <mxCell id="0"/>
                <mxCell id="1" parent="0"/>
                <mxCell id="32" value="" style="rounded=0;whiteSpace=wrap;html=1;fontSize=16;strokeColor=#000000;strokeWidth=1;fillColor=#FFFFFF;" parent="1" vertex="1">
                    <mxGeometry x="40" y="40" width="730" height="260" as="geometry"/>
                </mxCell>
                <mxCell id="2" value="" style="rounded=0;whiteSpace=wrap;html=1;strokeWidth=2;fillColor=#fff2cc;strokeColor=#d6b656;" parent="1" vertex="1">
                    <mxGeometry x="60" y="60" width="690" height="220" as="geometry"/>
                </mxCell>
                <mxCell id="3" value="&lt;font style=&quot;font-size: 18px&quot;&gt;&lt;b&gt;Waveform Sequence&lt;/b&gt;&lt;/font&gt;" style="text;html=1;strokeColor=none;fillColor=none;align=center;verticalAlign=middle;whiteSpace=wrap;rounded=0;" parent="1" vertex="1">
                    <mxGeometry x="60" y="60" width="200" height="30" as="geometry"/>
                </mxCell>
                <mxCell id="18" value="" style="group" parent="1" vertex="1" connectable="0">
                    <mxGeometry x="70" y="100" width="220" height="160" as="geometry"/>
                </mxCell>
                <mxCell id="4" value="&lt;font style=&quot;font-size: 16px&quot;&gt;&lt;b&gt;DTMF&lt;br&gt;&lt;br&gt;&lt;br&gt;&lt;br&gt;&lt;br&gt;&lt;br&gt;&lt;/b&gt;&lt;br&gt;&lt;/font&gt;" style="rounded=0;whiteSpace=wrap;html=1;fontSize=18;strokeWidth=1;fillColor=#fad9d5;strokeColor=#ae4132;align=left;" parent="18" vertex="1">
                    <mxGeometry width="220" height="160" as="geometry"/>
                </mxCell>
                <mxCell id="5" value="5" style="rounded=1;whiteSpace=wrap;html=1;fontSize=16;strokeWidth=1;fillColor=#e6d0de;gradientColor=#d5739d;strokeColor=#996185;" parent="18" vertex="1">
                    <mxGeometry x="40" y="35" width="30" height="30" as="geometry"/>
                </mxCell>
                <mxCell id="6" value="5" style="rounded=1;whiteSpace=wrap;html=1;fontSize=16;strokeWidth=1;fillColor=#e6d0de;gradientColor=#d5739d;strokeColor=#996185;" parent="18" vertex="1">
                    <mxGeometry x="90" y="35" width="30" height="30" as="geometry"/>
                </mxCell>
                <mxCell id="7" value="" style="edgeStyle=none;html=1;fontSize=16;" parent="18" source="5" target="6" edge="1">
                    <mxGeometry relative="1" as="geometry"/>
                </mxCell>
                <mxCell id="8" value="5" style="rounded=1;whiteSpace=wrap;html=1;fontSize=16;strokeWidth=1;fillColor=#e6d0de;gradientColor=#d5739d;strokeColor=#996185;" parent="18" vertex="1">
                    <mxGeometry x="140" y="35" width="30" height="30" as="geometry"/>
                </mxCell>
                <mxCell id="9" value="" style="edgeStyle=none;html=1;fontSize=16;" parent="18" source="6" target="8" edge="1">
                    <mxGeometry relative="1" as="geometry"/>
                </mxCell>
                <mxCell id="10" value="1" style="rounded=1;whiteSpace=wrap;html=1;fontSize=16;strokeWidth=1;fillColor=#e6d0de;gradientColor=#d5739d;strokeColor=#996185;" parent="18" vertex="1">
                    <mxGeometry x="25" y="95" width="30" height="30" as="geometry"/>
                </mxCell>
                <mxCell id="11" value="" style="edgeStyle=orthogonalEdgeStyle;html=1;fontSize=16;exitX=1;exitY=0.5;exitDx=0;exitDy=0;entryX=0;entryY=0.5;entryDx=0;entryDy=0;" parent="18" source="8" target="10" edge="1">
                    <mxGeometry relative="1" as="geometry">
                        <mxPoint x="190" y="55" as="sourcePoint"/>
                        <mxPoint x="10" y="155" as="targetPoint"/>
                        <Array as="points">
                            <mxPoint x="200" y="50"/>
                            <mxPoint x="200" y="75"/>
                            <mxPoint x="10" y="75"/>
                            <mxPoint x="10" y="110"/>
                        </Array>
                    </mxGeometry>
                </mxCell>
                <mxCell id="12" value="2" style="rounded=1;whiteSpace=wrap;html=1;fontSize=16;strokeWidth=1;fillColor=#e6d0de;gradientColor=#d5739d;strokeColor=#996185;" parent="18" vertex="1">
                    <mxGeometry x="75" y="95" width="30" height="30" as="geometry"/>
                </mxCell>
                <mxCell id="13" value="" style="edgeStyle=none;html=1;fontSize=16;" parent="18" source="10" target="12" edge="1">
                    <mxGeometry relative="1" as="geometry"/>
                </mxCell>
                <mxCell id="14" value="1" style="rounded=1;whiteSpace=wrap;html=1;fontSize=16;strokeWidth=1;fillColor=#e6d0de;gradientColor=#d5739d;strokeColor=#996185;" parent="18" vertex="1">
                    <mxGeometry x="125" y="95" width="30" height="30" as="geometry"/>
                </mxCell>
                <mxCell id="15" value="" style="edgeStyle=none;html=1;fontSize=16;" parent="18" source="12" target="14" edge="1">
                    <mxGeometry relative="1" as="geometry"/>
                </mxCell>
                <mxCell id="16" value="2" style="rounded=1;whiteSpace=wrap;html=1;fontSize=16;strokeWidth=1;fillColor=#e6d0de;gradientColor=#d5739d;strokeColor=#996185;" parent="18" vertex="1">
                    <mxGeometry x="175" y="95" width="30" height="30" as="geometry"/>
                </mxCell>
                <mxCell id="17" value="" style="edgeStyle=none;html=1;fontSize=16;" parent="18" source="14" target="16" edge="1">
                    <mxGeometry relative="1" as="geometry"/>
                </mxCell>
                <mxCell id="29" style="edgeStyle=orthogonalEdgeStyle;html=1;entryX=0;entryY=0.5;entryDx=0;entryDy=0;fontSize=16;" parent="1" source="19" target="23" edge="1">
                    <mxGeometry relative="1" as="geometry"/>
                </mxCell>
                <mxCell id="19" value="&lt;p style=&quot;line-height: 1&quot;&gt;&lt;font style=&quot;font-size: 14px&quot;&gt;&lt;b&gt;Silence&lt;/b&gt;&lt;/font&gt;&lt;/p&gt;" style="rounded=0;whiteSpace=wrap;html=1;fontSize=16;strokeWidth=1;align=center;rotation=90;fillColor=#eeeeee;strokeColor=#36393d;" parent="1" vertex="1">
                    <mxGeometry x="240" y="170" width="160" height="20" as="geometry"/>
                </mxCell>
                <mxCell id="21" style="edgeStyle=orthogonalEdgeStyle;html=1;entryX=0.5;entryY=1;entryDx=0;entryDy=0;fontSize=14;" parent="1" source="4" target="19" edge="1">
                    <mxGeometry relative="1" as="geometry"/>
                </mxCell>
                <mxCell id="30" style="edgeStyle=orthogonalEdgeStyle;html=1;entryX=1;entryY=0.5;entryDx=0;entryDy=0;fontSize=16;startArrow=classic;startFill=1;endArrow=none;endFill=0;" parent="1" source="22" target="23" edge="1">
                    <mxGeometry relative="1" as="geometry"/>
                </mxCell>
                <mxCell id="22" value="&lt;p style=&quot;line-height: 1&quot;&gt;&lt;font style=&quot;font-size: 14px&quot;&gt;&lt;b&gt;Silence&lt;/b&gt;&lt;/font&gt;&lt;/p&gt;" style="rounded=0;whiteSpace=wrap;html=1;fontSize=16;strokeWidth=1;align=center;rotation=90;fillColor=#eeeeee;strokeColor=#36393d;" parent="1" vertex="1">
                    <mxGeometry x="640" y="170" width="160" height="20" as="geometry"/>
                </mxCell>
                <mxCell id="28" value="" style="group" parent="1" vertex="1" connectable="0">
                    <mxGeometry x="330" y="100" width="480" height="170" as="geometry"/>
                </mxCell>
                <mxCell id="23" value="&lt;div&gt;&lt;font style=&quot;font-size: 16px&quot;&gt;&lt;b&gt;Signal&lt;/b&gt;&lt;/font&gt;&lt;/div&gt;&lt;div&gt;&lt;font style=&quot;font-size: 16px&quot;&gt;&lt;b&gt;&lt;br&gt;&lt;/b&gt;&lt;/font&gt;&lt;/div&gt;&lt;div&gt;&lt;font style=&quot;font-size: 16px&quot;&gt;&lt;b&gt;&lt;br&gt;&lt;/b&gt;&lt;/font&gt;&lt;/div&gt;&lt;div&gt;&lt;font style=&quot;font-size: 16px&quot;&gt;&lt;b&gt;&lt;br&gt;&lt;/b&gt;&lt;/font&gt;&lt;/div&gt;&lt;div&gt;&lt;font style=&quot;font-size: 16px&quot;&gt;&lt;b&gt;&lt;br&gt;&lt;/b&gt;&lt;/font&gt;&lt;/div&gt;&lt;div&gt;&lt;font style=&quot;font-size: 16px&quot;&gt;&lt;b&gt;&lt;br&gt;&lt;/b&gt;&lt;/font&gt;&lt;/div&gt;&lt;div&gt;&lt;font style=&quot;font-size: 16px&quot;&gt;&lt;b&gt;&lt;br&gt;&lt;/b&gt;&lt;/font&gt;&lt;/div&gt;&lt;div&gt;&lt;font style=&quot;font-size: 16px&quot;&gt;&lt;b&gt;&lt;br&gt;&lt;/b&gt;&lt;/font&gt;&lt;/div&gt;" style="rounded=0;whiteSpace=wrap;html=1;fontSize=14;strokeWidth=1;fillColor=#cce5ff;strokeColor=#36393d;align=left;" parent="28" vertex="1">
                    <mxGeometry x="20" width="340" height="160" as="geometry"/>
                </mxCell>
                <mxCell id="24" value="Tone 1" style="rounded=0;whiteSpace=wrap;html=1;fontSize=16;strokeWidth=1;fillColor=#d5e8d4;strokeColor=#000000;" parent="28" vertex="1">
                    <mxGeometry x="40" y="34.285714285714285" width="300" height="34.285714285714285" as="geometry"/>
                </mxCell>
                <mxCell id="26" value="Tone 2" style="rounded=0;whiteSpace=wrap;html=1;fontSize=16;strokeWidth=1;fillColor=#d5e8d4;strokeColor=#000000;" parent="28" vertex="1">
                    <mxGeometry x="40" y="68.57142857142857" width="300" height="34.285714285714285" as="geometry"/>
                </mxCell>
                <mxCell id="27" value="Tone 3" style="rounded=0;whiteSpace=wrap;html=1;fontSize=16;strokeWidth=1;fillColor=#d5e8d4;strokeColor=#000000;" parent="28" vertex="1">
                    <mxGeometry x="40" y="102.85714285714285" width="300" height="34.285714285714285" as="geometry"/>
                </mxCell>
                <mxCell id="33" value="" style="rounded=0;whiteSpace=wrap;html=1;fontSize=16;strokeColor=#000000;strokeWidth=1;fillColor=#FFFFFF;" vertex="1" parent="1">
                    <mxGeometry x="40" y="360" width="640" height="230" as="geometry"/>
                </mxCell>
                <mxCell id="34" value="" style="rounded=0;whiteSpace=wrap;html=1;strokeWidth=2;fillColor=#fff2cc;strokeColor=#d6b656;" vertex="1" parent="1">
                    <mxGeometry x="60" y="380" width="600" height="190" as="geometry"/>
                </mxCell>
                <mxCell id="35" value="&lt;font style=&quot;font-size: 18px&quot;&gt;&lt;b&gt;Waveform Sequence&lt;/b&gt;&lt;/font&gt;" style="text;html=1;strokeColor=none;fillColor=none;align=center;verticalAlign=middle;whiteSpace=wrap;rounded=0;" vertex="1" parent="1">
                    <mxGeometry x="60" y="380" width="200" height="30" as="geometry"/>
                </mxCell>
                <mxCell id="55" style="edgeStyle=none;html=1;entryX=0.5;entryY=1;entryDx=0;entryDy=0;" edge="1" parent="1" source="40" target="41">
                    <mxGeometry relative="1" as="geometry"/>
                </mxCell>
                <mxCell id="59" style="edgeStyle=none;html=1;entryX=0;entryY=0.5;entryDx=0;entryDy=0;" edge="1" parent="1" source="41" target="44">
                    <mxGeometry relative="1" as="geometry">
                        <mxPoint x="300" y="485" as="targetPoint"/>
                    </mxGeometry>
                </mxCell>
                <mxCell id="41" value="&lt;p style=&quot;line-height: 1&quot;&gt;&lt;font style=&quot;font-size: 14px&quot;&gt;&lt;b&gt;Silence&lt;/b&gt;&lt;/font&gt;&lt;/p&gt;" style="rounded=0;whiteSpace=wrap;html=1;fontSize=16;strokeWidth=1;align=center;rotation=90;fillColor=#eeeeee;strokeColor=#36393d;" vertex="1" parent="1">
                    <mxGeometry x="188.75" y="471.25" width="122.5" height="20" as="geometry"/>
                </mxCell>
                <mxCell id="61" style="edgeStyle=none;html=1;entryX=0;entryY=0.5;entryDx=0;entryDy=0;" edge="1" parent="1" source="54" target="49">
                    <mxGeometry relative="1" as="geometry"/>
                </mxCell>
                <mxCell id="54" value="&lt;p style=&quot;line-height: 1&quot;&gt;&lt;font style=&quot;font-size: 14px&quot;&gt;&lt;b&gt;Silence&lt;/b&gt;&lt;/font&gt;&lt;/p&gt;" style="rounded=0;whiteSpace=wrap;html=1;fontSize=16;strokeWidth=1;align=center;rotation=90;fillColor=#eeeeee;strokeColor=#36393d;" vertex="1" parent="1">
                    <mxGeometry x="398.75" y="471.25" width="122.5" height="20" as="geometry"/>
                </mxCell>
                <mxCell id="60" style="edgeStyle=none;html=1;entryX=0.5;entryY=1;entryDx=0;entryDy=0;" edge="1" parent="1" source="44" target="54">
                    <mxGeometry relative="1" as="geometry"/>
                </mxCell>
                <mxCell id="40" value="&lt;div&gt;&lt;font style=&quot;font-size: 16px&quot;&gt;&lt;b&gt;Signal&lt;/b&gt;&lt;/font&gt;&lt;/div&gt;&lt;div&gt;&lt;font style=&quot;font-size: 16px&quot;&gt;&lt;b&gt;&lt;br&gt;&lt;/b&gt;&lt;/font&gt;&lt;/div&gt;&lt;div&gt;&lt;font style=&quot;font-size: 16px&quot;&gt;&lt;b&gt;&lt;br&gt;&lt;/b&gt;&lt;/font&gt;&lt;/div&gt;&lt;div&gt;&lt;font style=&quot;font-size: 16px&quot;&gt;&lt;b&gt;&lt;br&gt;&lt;/b&gt;&lt;/font&gt;&lt;/div&gt;&lt;div&gt;&lt;font style=&quot;font-size: 16px&quot;&gt;&lt;b&gt;&lt;br&gt;&lt;/b&gt;&lt;/font&gt;&lt;/div&gt;&lt;div&gt;&lt;font style=&quot;font-size: 16px&quot;&gt;&lt;b&gt;&lt;br&gt;&lt;/b&gt;&lt;/font&gt;&lt;/div&gt;" style="rounded=0;whiteSpace=wrap;html=1;fontSize=14;strokeWidth=1;fillColor=#cce5ff;strokeColor=#36393d;align=left;" vertex="1" parent="1">
                    <mxGeometry x="80" y="420" width="130" height="120" as="geometry"/>
                </mxCell>
                <mxCell id="43" value="" style="group" vertex="1" connectable="0" parent="1">
                    <mxGeometry x="90" y="450" width="110" height="70" as="geometry"/>
                </mxCell>
                <mxCell id="36" value="" style="triangle;whiteSpace=wrap;html=1;fillColor=#00CCCC;strokeColor=none;" vertex="1" parent="43">
                    <mxGeometry x="82.5" width="27.5" height="70" as="geometry"/>
                </mxCell>
                <mxCell id="37" value="Tone1" style="rounded=0;whiteSpace=wrap;html=1;fillColor=#00CCCC;strokeColor=none;" vertex="1" parent="43">
                    <mxGeometry x="27.5" width="55" height="70" as="geometry"/>
                </mxCell>
                <mxCell id="38" value="" style="triangle;whiteSpace=wrap;html=1;rotation=-180;fillColor=#00CCCC;strokeColor=none;" vertex="1" parent="43">
                    <mxGeometry width="27.5" height="70" as="geometry"/>
                </mxCell>
                <mxCell id="44" value="&lt;div&gt;&lt;font style=&quot;font-size: 16px&quot;&gt;&lt;b&gt;Signal&lt;/b&gt;&lt;/font&gt;&lt;/div&gt;&lt;div&gt;&lt;font style=&quot;font-size: 16px&quot;&gt;&lt;b&gt;&lt;br&gt;&lt;/b&gt;&lt;/font&gt;&lt;/div&gt;&lt;div&gt;&lt;font style=&quot;font-size: 16px&quot;&gt;&lt;b&gt;&lt;br&gt;&lt;/b&gt;&lt;/font&gt;&lt;/div&gt;&lt;div&gt;&lt;font style=&quot;font-size: 16px&quot;&gt;&lt;b&gt;&lt;br&gt;&lt;/b&gt;&lt;/font&gt;&lt;/div&gt;&lt;div&gt;&lt;font style=&quot;font-size: 16px&quot;&gt;&lt;b&gt;&lt;br&gt;&lt;/b&gt;&lt;/font&gt;&lt;/div&gt;&lt;div&gt;&lt;font style=&quot;font-size: 16px&quot;&gt;&lt;b&gt;&lt;br&gt;&lt;/b&gt;&lt;/font&gt;&lt;/div&gt;" style="rounded=0;whiteSpace=wrap;html=1;fontSize=14;strokeWidth=1;fillColor=#cce5ff;strokeColor=#36393d;align=left;" vertex="1" parent="1">
                    <mxGeometry x="290" y="422.5" width="130" height="117.5" as="geometry"/>
                </mxCell>
                <mxCell id="45" value="" style="group" vertex="1" connectable="0" parent="1">
                    <mxGeometry x="300" y="450" width="110" height="70" as="geometry"/>
                </mxCell>
                <mxCell id="46" value="" style="triangle;whiteSpace=wrap;html=1;fillColor=#00CCCC;strokeColor=none;" vertex="1" parent="45">
                    <mxGeometry x="82.5" width="27.5" height="70" as="geometry"/>
                </mxCell>
                <mxCell id="47" value="Tone2" style="rounded=0;whiteSpace=wrap;html=1;fillColor=#00CCCC;strokeColor=none;" vertex="1" parent="45">
                    <mxGeometry x="27.5" width="55" height="70" as="geometry"/>
                </mxCell>
                <mxCell id="48" value="" style="triangle;whiteSpace=wrap;html=1;rotation=-180;fillColor=#00CCCC;strokeColor=none;" vertex="1" parent="45">
                    <mxGeometry width="27.5" height="70" as="geometry"/>
                </mxCell>
                <mxCell id="49" value="&lt;div&gt;&lt;font style=&quot;font-size: 16px&quot;&gt;&lt;b&gt;Signal&lt;/b&gt;&lt;/font&gt;&lt;/div&gt;&lt;div&gt;&lt;font style=&quot;font-size: 16px&quot;&gt;&lt;b&gt;&lt;br&gt;&lt;/b&gt;&lt;/font&gt;&lt;/div&gt;&lt;div&gt;&lt;font style=&quot;font-size: 16px&quot;&gt;&lt;b&gt;&lt;br&gt;&lt;/b&gt;&lt;/font&gt;&lt;/div&gt;&lt;div&gt;&lt;font style=&quot;font-size: 16px&quot;&gt;&lt;b&gt;&lt;br&gt;&lt;/b&gt;&lt;/font&gt;&lt;/div&gt;&lt;div&gt;&lt;font style=&quot;font-size: 16px&quot;&gt;&lt;b&gt;&lt;br&gt;&lt;/b&gt;&lt;/font&gt;&lt;/div&gt;&lt;div&gt;&lt;font style=&quot;font-size: 16px&quot;&gt;&lt;b&gt;&lt;br&gt;&lt;/b&gt;&lt;/font&gt;&lt;/div&gt;" style="rounded=0;whiteSpace=wrap;html=1;fontSize=14;strokeWidth=1;fillColor=#cce5ff;strokeColor=#36393d;align=left;" vertex="1" parent="1">
                    <mxGeometry x="500" y="422.5" width="130" height="117.5" as="geometry"/>
                </mxCell>
                <mxCell id="50" value="" style="group" vertex="1" connectable="0" parent="1">
                    <mxGeometry x="510" y="450" width="110" height="70" as="geometry"/>
                </mxCell>
                <mxCell id="51" value="" style="triangle;whiteSpace=wrap;html=1;fillColor=#00CCCC;strokeColor=none;" vertex="1" parent="50">
                    <mxGeometry x="82.5" width="27.5" height="70" as="geometry"/>
                </mxCell>
                <mxCell id="52" value="Tone3" style="rounded=0;whiteSpace=wrap;html=1;fillColor=#00CCCC;strokeColor=none;" vertex="1" parent="50">
                    <mxGeometry x="27.5" width="55" height="70" as="geometry"/>
                </mxCell>
                <mxCell id="53" value="" style="triangle;whiteSpace=wrap;html=1;rotation=-180;fillColor=#00CCCC;strokeColor=none;" vertex="1" parent="50">
                    <mxGeometry width="27.5" height="70" as="geometry"/>
                </mxCell>
            </root>
        </mxGraphModel>
    </diagram>
</mxfile>